<?xml version="1.0" encoding="UTF-8"?>
<svg id="Layer_1" data-name="Layer 1" xmlns="http://www.w3.org/2000/svg" viewBox="0 0 300 300">
  <defs>
    <style>
      .cls-1 {
        fill: #efe2c6;
      }
    </style>
  </defs>
  <path class="cls-1" d="m259.42,20c11.35,0,20.58,9.23,20.58,20.58s-9.23,20.58-20.58,20.58H40.58c-11.35,0-20.58-9.23-20.58-20.58s9.23-20.58,20.58-20.58h218.84m0-20H40.58C18.17,0,0,18.17,0,40.58s18.17,40.58,40.58,40.58h218.84c22.41,0,40.58-18.17,40.58-40.58S281.83,0,259.42,0h0Z"/>
  <path class="cls-1" d="m259.42,129.42c11.35,0,20.58,9.23,20.58,20.58s-9.23,20.58-20.58,20.58H40.58c-11.35,0-20.58-9.23-20.58-20.58s9.23-20.58,20.58-20.58h218.84m0-20H40.58C18.17,109.42,0,127.59,0,150h0c0,22.41,18.17,40.58,40.58,40.58h218.84c22.41,0,40.58-18.17,40.58-40.58h0c0-22.41-18.17-40.58-40.58-40.58h0Z"/>
  <path class="cls-1" d="m259.42,238.84c11.35,0,20.58,9.23,20.58,20.58s-9.23,20.58-20.58,20.58H40.58c-11.35,0-20.58-9.23-20.58-20.58s9.23-20.58,20.58-20.58h218.84m0-20H40.58c-22.41,0-40.58,18.17-40.58,40.58h0c0,22.41,18.17,40.58,40.58,40.58h218.84c22.41,0,40.58-18.17,40.58-40.58h0c0-22.41-18.17-40.58-40.58-40.58h0Z"/>
</svg>