<?xml version="1.0" encoding="utf-8"?>
<!-- Generator: Adobe Illustrator 27.5.0, SVG Export Plug-In . SVG Version: 6.00 Build 0)  -->
<svg version="1.1" id="Layer_1" xmlns="http://www.w3.org/2000/svg" xmlns:xlink="http://www.w3.org/1999/xlink" x="0px" y="0px"
	 viewBox="0 0 281.74 199.21" style="enable-background:new 0 0 281.74 199.21;" xml:space="preserve">
<g>
	<g>
		<path d="M203.19,166.6c-3.37,0-5.11,0.08-8.25,0.08c0-19.61,0-39.16,0-59.11c17.51,0,35.06,0,52.95,0c0,19.59,0,39.12,0,58.99
			c-2.61,0-5.12-0.06-8.25-0.06c0-16.83,0-33.54,0-50.42c-11.98,0-24.45-0.02-36.45-0.02C203.19,132.99,203.19,149.69,203.19,166.6z
			"/>
		<path d="M194.94,87.54c0-18.38,0-36.44,0-54.9c3.06,0,4.8-0.07,8.25-0.07c0,15.43,0.03,31.75,0.03,47.36
			c11.96,0,24.48,0.07,36.45,0.07c0-15.43-0.03-31.74-0.03-47.43c2.99,0,5.36,0,8.25,0c0,18.13,0,36.31,0,54.97
			C230.42,87.54,212.82,87.54,194.94,87.54z"/>
		<path d="M271.97,32.53c3.35,0,5.23,0,8.25,0c0,44.76,0,89.27,0,134.07c-3.07,0-5.06,0-8.25,0
			C271.97,121.88,271.97,77.39,271.97,32.53z"/>
		<path d="M164.27,32.54c2.62,0,5.43-0.01,8.29-0.01c0,44.62,0,89.22,0,134.09c-2.62,0-5.44,0.01-8.29,0.01
			C164.27,122.07,164.27,77.46,164.27,32.54z"/>
	</g>
	<g>
		<path d="M75.47,170.28c-20.94,0.49-39.26-6.24-54.18-20.7C9.96,138.6,4.01,124.68,2.12,108.85C0.45,94.8,2.19,81.42,8.29,68.77
			c11.75-24.38,31.86-36.28,58.33-39.3c15.83-1.8,30.69,0.6,44.82,7.38c18.64,8.94,30.89,23.69,35.8,43.73
			c6.59,26.89,1.37,51.21-19.16,70.67C113.5,165.07,95.41,170.71,75.47,170.28z M77.91,161.67c14.21,0.78,29.3-4.46,41.82-15.33
			c18.36-15.96,23.85-36.86,19.36-60.27c-3.59-18.72-14.75-32.36-31.55-40.99C89.13,35.62,70,34.89,50.55,42
			c-14.52,5.31-25.1,15.02-32.67,28.41c-5.89,10.42-7.39,21.57-6.94,33.26c0.56,14.5,5.76,27.11,15.55,37.66
			C39.59,155.46,56.08,161.84,77.91,161.67z"/>
		<path d="M75.94,60.63c22.63,0.26,39.88,17.5,39.65,38.63c-0.27,24.45-17.06,39.78-40.4,39.66c-23.11-0.12-39.35-16.63-39.49-39.08
			C35.55,77.82,52.4,60.88,75.94,60.63z M106.25,100.22c1.04-16.41-15.62-31.27-30.97-31.01c-16.76,0.28-30.65,16.11-30.42,30.75
			c0.27,16.95,14.29,30.4,30.75,30.51C92.99,130.58,106.95,115.32,106.25,100.22z"/>
	</g>
</g>
</svg>
